HIERARCHY
ROOT joint_Root
{
	OFFSET 0.0 0.0 0.0
	CHANNELS 6 Xposition Yposition Zposition Zrotation Xrotation Yrotation 
	JOINT Hips
	{
		OFFSET -0.726466 93.3139 -2.00062
		CHANNELS 6 Xposition Yposition Zposition Zrotation Xrotation Yrotation 
		JOINT Spine
		{
			OFFSET 15.7357 0.0 0.0
			CHANNELS 6 Xposition Yposition Zposition Zrotation Xrotation Yrotation 
			JOINT Chest
			{
				OFFSET 8.98455 -0.406207 0.0
				CHANNELS 6 Xposition Yposition Zposition Zrotation Xrotation Yrotation 
				JOINT Neck
				{
					OFFSET 16.3773 0.0 0.0
					CHANNELS 6 Xposition Yposition Zposition Zrotation Xrotation Yrotation 
					JOINT Head
					{
						OFFSET 6.45672 0.0 0.0
						CHANNELS 6 Xposition Yposition Zposition Zrotation Xrotation Yrotation 
						End Site
						{
							OFFSET 0.0 0.0 0.0
						}
					}
				}
				JOINT Shoulder_L
				{
					OFFSET 12.9942 -0.242716 4.98039
					CHANNELS 6 Xposition Yposition Zposition Zrotation Xrotation Yrotation 
					JOINT UpperArm_L
					{
						OFFSET 5.34809 0.0 0.0
						CHANNELS 6 Xposition Yposition Zposition Zrotation Xrotation Yrotation 
						JOINT LowerArm_L
						{
							OFFSET 24.3286 1.87007e-05 0.0
							CHANNELS 6 Xposition Yposition Zposition Zrotation Xrotation Yrotation 
							JOINT Hand_L
							{
								OFFSET 22.2916 0.0 0.0
								CHANNELS 6 Xposition Yposition Zposition Zrotation Xrotation Yrotation 
								End Site
								{
									OFFSET 0.0 0.0 0.0
								}
							}
						}
					}
				}
				JOINT Shoulder_R
				{
					OFFSET 12.9945 -0.242716 -4.98039
					CHANNELS 6 Xposition Yposition Zposition Zrotation Xrotation Yrotation 
					JOINT UpperArm_R
					{
						OFFSET -5.34813 0.0 0.0
						CHANNELS 6 Xposition Yposition Zposition Zrotation Xrotation Yrotation 
						JOINT LowerArm_R
						{
							OFFSET -24.3289 0.000322201 0.0
							CHANNELS 6 Xposition Yposition Zposition Zrotation Xrotation Yrotation 
							JOINT Hand_R
							{
								OFFSET -22.2915 -0.000108084 0.0
								CHANNELS 6 Xposition Yposition Zposition Zrotation Xrotation Yrotation 
								End Site
								{
									OFFSET 0.0 0.0 0.0
								}
							}
						}
					}
				}
			}
		}
		JOINT UpperLeg_L
		{
			OFFSET -2.19248 -6.46944 0.0
			CHANNELS 6 Xposition Yposition Zposition Zrotation Xrotation Yrotation 
			JOINT LowerLeg_L
			{
				OFFSET 39.0811 0.0 -1.23785e-05
				CHANNELS 6 Xposition Yposition Zposition Zrotation Xrotation Yrotation 
				JOINT Foot_L
				{
					OFFSET 40.9854 0.0 -1.26872e-05
					CHANNELS 6 Xposition Yposition Zposition Zrotation Xrotation Yrotation 
					JOINT Toes_L
					{
						OFFSET 11.7543 0.0 0.0
						CHANNELS 6 Xposition Yposition Zposition Zrotation Xrotation Yrotation 
						End Site
						{
							OFFSET 0.0 0.0 0.0
						}
					}
				}
			}
		}
		JOINT UpperLeg_R
		{
			OFFSET -2.19251 6.46944 0.0
			CHANNELS 6 Xposition Yposition Zposition Zrotation Xrotation Yrotation 
			JOINT LowerLeg_R
			{
				OFFSET -39.0811 -0.00228153 -0.0401928
				CHANNELS 6 Xposition Yposition Zposition Zrotation Xrotation Yrotation 
				JOINT Foot_R
				{
					OFFSET -40.9854 0.0 0.0
					CHANNELS 6 Xposition Yposition Zposition Zrotation Xrotation Yrotation 
					JOINT Toes_R
					{
						OFFSET -11.7543 0.0 0.0
						CHANNELS 6 Xposition Yposition Zposition Zrotation Xrotation Yrotation 
						End Site
						{
							OFFSET 0.0 0.0 0.0
						}
					}
				}
			}
		}
	}
}
MOTION
Frames:	4
Frame Time:	0.0333333
0.000000 0.000000 0.000000 0.000000 0.000000 -0.000000 -0.328167 92.261800 -0.748103 87.869100 -1.698650 5.127710 15.735700 0.000005 -0.000001 95.149900 85.651000 -95.931500 8.984550 -0.406207 -0.000000 0.903015 0.827230 -1.568440 16.377300 -0.000001 -0.000001 4.234500 -2.554090 0.876717 6.456720 -0.000001 -0.000000 1.285020 -2.124860 -4.943670 12.994200 -0.242716 4.980390 -89.942800 -0.180655 -72.422900 5.348090 -0.000007 -0.000001 -68.143100 37.874900 -11.803300 24.328600 0.000019 0.000005 0.751912 1.792920 -22.755400 22.291600 -0.000001 0.000005 5.689430 5.487110 -6.022810 12.994500 -0.242716 -4.980390 89.260300 2.138270 -70.913100 -5.348130 -0.000001 -0.000004 -73.643300 -21.512800 -85.792700 -24.328900 0.000322 -0.000009 21.271500 -3.251520 -98.289700 -22.291500 -0.000108 -0.000004 23.945900 5.290080 0.348467 -2.192480 -6.469440 -0.000000 -175.636000 -5.718990 -1.647820 39.081100 -0.000007 -0.000012 -0.109346 0.254038 23.288600 40.985400 -0.000006 -0.000013 -0.259749 1.881470 -66.700600 11.754300 -0.000000 0.000003 -0.000048 -0.000549 -16.598900 -2.192510 6.469440 -0.000001 179.763000 11.563100 -179.763000 -39.081100 -0.002282 -0.040193 0.011641 -0.022487 20.304400 -40.985400 0.000008 0.000006 4.546910 6.359910 -66.040700 -11.754300 -0.000006 -0.000006 -0.008478 -0.091888 -20.315300
0.000000 0.000000 0.000000 0.000000 0.000000 -0.000000 -0.340695 92.258300 -0.757327 87.887100 -1.742590 5.109970 15.735700 0.000005 -0.000001 95.206700 85.644200 -95.990000 8.984550 -0.406207 -0.000000 0.915930 0.837077 -1.571950 16.377300 -0.000001 -0.000001 4.206990 -2.629140 0.899722 6.456720 -0.000001 -0.000000 1.325780 -2.260920 -4.903490 12.994200 -0.242716 4.980390 -89.946100 -0.170552 -72.451600 5.348090 -0.000007 -0.000001 -68.209400 37.904300 -11.706000 24.328600 0.000019 0.000005 0.750309 1.795930 -22.677700 22.291600 -0.000001 0.000005 5.624660 5.485700 -5.967780 12.994500 -0.242716 -4.980390 89.262000 2.131120 -70.894400 -5.348130 -0.000001 -0.000004 -73.471400 -21.536600 -85.735300 -24.328900 0.000322 -0.000009 21.368300 -3.257830 -98.264700 -22.291500 -0.000108 -0.000004 24.067000 5.286280 0.453495 -2.192480 -6.469440 -0.000000 -175.638000 -5.777480 -1.675380 39.081100 -0.000007 -0.000012 -0.109483 0.254189 23.302400 40.985400 -0.000006 -0.000013 -0.264531 1.906900 -66.700600 11.754300 -0.000000 0.000003 -0.000052 -0.000582 -16.600100 -2.192510 6.469440 -0.000001 179.748000 11.549300 -179.816000 -39.081100 -0.002282 -0.040193 0.009024 -0.015379 20.348900 -40.985400 0.000008 0.000006 4.485640 6.387790 -66.041600 -11.754300 -0.000006 -0.000006 -0.008607 -0.092917 -20.357400
0.000000 0.000000 0.000000 0.000000 0.000000 -0.000000 -0.352014 92.259600 -0.776344 87.868000 -1.778970 5.077680 15.735700 0.000005 -0.000001 95.205000 85.644300 -95.975200 8.984550 -0.406207 -0.000000 0.915694 0.836008 -1.545840 16.377300 -0.000001 -0.000001 4.162430 -2.670910 0.925080 6.456720 -0.000001 -0.000000 1.303760 -2.344970 -4.876230 12.994200 -0.242716 4.980390 -89.950000 -0.158164 -72.442400 5.348090 -0.000007 -0.000001 -68.266300 37.870300 -11.583500 24.328600 0.000019 0.000005 0.814508 1.954490 -22.627500 22.291600 -0.000001 0.000005 5.620130 5.486610 -6.003370 12.994500 -0.242716 -4.980390 89.262600 2.129820 -70.898200 -5.348130 -0.000001 -0.000004 -73.355000 -21.578900 -85.711100 -24.328900 0.000322 -0.000009 21.456400 -3.239820 -98.183100 -22.291500 -0.000108 -0.000004 24.015000 5.285700 0.469651 -2.192480 -6.469440 -0.000000 -175.613000 -5.786230 -1.720810 39.081100 -0.000007 -0.000012 -0.110588 0.256603 23.314600 40.985400 -0.000006 -0.000013 -0.281466 1.876620 -66.696000 11.754300 -0.000000 0.000003 -0.000043 -0.000495 -16.596800 -2.192510 6.469440 -0.000001 179.787000 11.533600 -179.856000 -39.081100 -0.002282 -0.040193 0.007955 -0.012510 20.327700 -40.985400 0.000008 0.000006 4.438090 6.400720 -66.007300 -11.754300 -0.000006 -0.000006 -0.008438 -0.091571 -20.302400
0.000000 0.000000 0.000000 0.000000 0.000000 -0.000000 -0.375412 92.267400 -0.800710 87.867200 -1.827920 5.056840 15.735700 0.000005 -0.000001 95.259200 85.636500 -96.029000 8.984550 -0.406207 -0.000000 0.930514 0.845528 -1.545130 16.377300 -0.000001 -0.000001 4.109880 -2.693680 0.948112 6.456720 -0.000001 -0.000000 1.240670 -2.393410 -4.822180 12.994200 -0.242716 4.980390 -89.943900 -0.177413 -72.437100 5.348090 -0.000007 -0.000001 -68.315500 37.817600 -11.480000 24.328600 0.000019 0.000005 0.780460 1.877240 -22.578700 22.291600 -0.000001 0.000005 5.702110 5.485120 -5.945640 12.994500 -0.242716 -4.980390 89.257700 2.145390 -70.909300 -5.348130 -0.000001 -0.000004 -73.334800 -21.604500 -85.734600 -24.328900 0.000322 -0.000009 21.644100 -3.206710 -98.024400 -22.291500 -0.000108 -0.000004 24.014600 5.287360 0.424001 -2.192480 -6.469440 -0.000000 -175.590000 -5.855880 -1.729360 39.081100 -0.000007 -0.000012 -0.110970 0.258047 23.269600 40.985400 -0.000006 -0.000013 -0.289226 1.917860 -66.657900 11.754300 -0.000000 0.000003 -0.000057 -0.000636 -16.602200 -2.192510 6.469440 -0.000001 179.809000 11.478100 -179.877000 -39.081100 -0.002282 -0.040193 0.008676 -0.014486 20.289200 -40.985400 0.000008 0.000006 4.481000 6.428200 -65.978800 -11.754300 -0.000006 -0.000006 -0.008427 -0.091482 -20.298800
